<svg width="36.000000" height="36.000000" viewBox="0 0 36 36" fill="none" xmlns="http://www.w3.org/2000/svg" xmlns:xlink="http://www.w3.org/1999/xlink">
	<desc>
			Created with Pixso.
	</desc>
	<defs/>
	<rect id="Add/Disable" width="36.000000" height="36.000000" fill="#FFFFFF" fill-opacity="0"/>
	<rect id="Add/Default" rx="18.000000" width="36.000000" height="36.000000" fill="#FFFFFF" fill-opacity="0"/>
	<path id="Vector" d="M26 26L26 10L10 10L10 26L26 26ZM25.7778 8C26.3672 8 26.9326 8.23389 27.3491 8.65088C27.7661 9.06738 28 9.63281 28 10.2222L28 25.7778C28 26.3672 27.7661 26.9326 27.3491 27.3491C26.9326 27.7661 26.3672 28 25.7778 28L10.2222 28C9.63281 28 9.06738 27.7661 8.65088 27.3491C8.23389 26.9326 8 26.3672 8 25.7778L8 10.2222C8 8.98877 9 8 10.2222 8L25.7778 8ZM16.8887 13.5557C16.8887 12.9419 17.3862 12.4443 18 12.4443C18.6138 12.4443 19.1113 12.9419 19.1113 13.5557L19.1113 16.8887L22.4443 16.8887C23.0581 16.8887 23.5557 17.3862 23.5557 18C23.5557 18.6138 23.0581 19.1113 22.4443 19.1113L19.1113 19.1113L19.1113 22.4443C19.1113 23.0581 18.6138 23.5557 18 23.5557C17.3862 23.5557 16.8887 23.0581 16.8887 22.4443L16.8887 19.1113L13.5557 19.1113C12.9419 19.1113 12.4443 18.6138 12.4443 18C12.4443 17.3862 12.9419 16.8887 13.5557 16.8887L16.8887 16.8887L16.8887 13.5557Z" fill="#A8B0BF" fill-opacity="1.000000" fill-rule="nonzero"/>
</svg>
