<svg width="36.000000" height="36.000000" viewBox="0 0 36 36" fill="none" xmlns="http://www.w3.org/2000/svg" xmlns:xlink="http://www.w3.org/1999/xlink">
	<desc>
			Created with Pixso.
	</desc>
	<defs/>
	<path id="Vector" d="M10.8408 28C10.3765 28 9.97949 27.8369 9.64893 27.5103C9.31836 27.1841 9 26.7915 9 26.3335L9 11L8.5 11C7.94775 11 7.5 10.5522 7.5 10C7.5 9.44775 7.94775 9 8.5 9L14.2876 9C14.2876 8.44775 14.7354 8 15.2876 8L20.7124 8C21.2646 8 21.7124 8.44775 21.7124 9L27.5 9C28.0522 9 28.5 9.44775 28.5 10C28.5 10.5522 28.0522 11 27.5 11L27 11L27 26.3335C27 26.7778 26.6782 27.1665 26.3408 27.5C26.0029 27.8335 25.6094 28 25.1592 28L10.8408 28ZM25 11L11 11L11 26L25 26L25 11ZM14 22.9619C14 23.5073 14.437 23.9619 14.9824 23.9619C15.5415 23.9619 16 23.521 16 22.9619L16 13.9619C16 13.4165 15.563 12.9624 15.0176 12.9624C14.4585 12.9624 14 13.4028 14 13.9619L14 22.9619ZM20 22.9072C20 23.4668 20.459 23.9175 21.0186 23.9072C21.5635 23.897 22 23.4521 22 22.9072L22 13.9629C22 13.4038 21.541 12.9531 20.9814 12.9634C20.4365 12.9736 20 13.418 20 13.9629L20 22.9072Z" fill="#A8B0BF" fill-opacity="1.000000" fill-rule="nonzero"/>
</svg>
